# Blender 4.1.1
# www.blender.org
mtllib CameraAxis.mtl
o Axis
v 0.000000 0.100000 -0.000000
v 0.000000 -0.000000 -0.000000
v 0.000000 0.100000 0.100000
v 0.000000 -0.000000 0.100000
v -0.100000 0.100000 -0.000000
v -0.100000 -0.000000 -0.000000
v -0.100000 0.100000 0.100000
v -0.100000 -0.000000 0.100000
v -0.100000 -0.000000 0.500000
v -0.100000 0.100000 0.500000
v 0.000000 0.100000 0.500000
v 0.000000 -0.000000 0.500000
v -0.500000 -0.000000 -0.000000
v -0.500000 -0.000000 0.100000
v -0.500000 0.100000 0.100000
v -0.500000 0.100000 -0.000000
v 0.000000 0.500000 0.100000
v -0.100000 0.500000 0.100000
v 0.000000 0.500000 -0.000000
v -0.100000 0.500000 -0.000000
vn -1.0000 -0.0000 -0.0000
vn -0.0000 -0.0000 -1.0000
vn -0.0000 -1.0000 -0.0000
vn 1.0000 -0.0000 -0.0000
vn -0.0000 -0.0000 1.0000
vn -0.0000 1.0000 -0.0000
vt 0.202904 0.014521
vt 0.108713 0.391287
vt 0.108713 0.014521
vt 0.724978 0.984642
vt 0.819169 0.607876
vt 0.819169 0.984642
vt 0.297096 0.985479
vt 0.391287 0.608713
vt 0.391287 0.985479
vt 0.680392 0.207212
vt 0.586201 0.301403
vt 0.586201 0.207212
vt 0.774584 0.207212
vt 0.680392 0.301403
vt 0.586201 0.113020
vt 0.913361 0.607876
vt 0.819169 0.513684
vt 0.913361 0.513684
vt 0.630786 0.984642
vt 0.724977 0.607876
vt 0.913361 0.984642
vt 0.536594 0.984642
vt 0.630786 0.607876
vt 0.391288 0.514521
vt 0.297096 0.608713
vt 0.297096 0.514521
vt 0.108713 0.985479
vt 0.202904 0.608713
vt 0.202904 0.985479
vt 0.014521 0.985479
vt 0.108713 0.608713
vt 0.014521 0.485479
vt 0.014521 0.391287
vt 0.391287 0.014521
vt 0.297096 0.391287
vt 0.297096 0.014521
vt 0.014521 0.014521
vt 0.202904 0.391287
vt 0.774584 0.301403
vt 0.680392 0.113020
vt 0.536594 0.607876
vt 0.014521 0.608713
vt 0.108713 0.485479
vt 0.391288 0.391287
s 0
usemtl Material
f 7/1/1 20/2/1 5/3/1
f 8/4/1 10/5/1 7/6/1
f 6/7/2 16/8/2 5/9/2
f 2/10/3 8/11/3 6/12/3
f 1/13/4 4/14/4 2/10/4
f 5/15/2 2/10/2 6/12/2
f 11/16/5 9/17/5 12/18/5
f 4/19/3 9/20/3 8/4/3
f 7/6/6 11/16/6 3/21/6
f 3/22/4 12/23/4 4/19/4
f 15/24/1 13/25/1 14/26/1
f 7/27/5 14/28/5 8/29/5
f 8/29/3 13/25/3 6/7/3
f 5/30/6 15/31/6 7/27/6
f 20/2/6 17/32/6 19/33/6
f 1/34/4 17/35/4 3/36/4
f 5/3/2 19/33/2 1/37/2
f 3/36/5 18/38/5 7/1/5
f 7/1/1 18/38/1 20/2/1
f 8/4/1 9/20/1 10/5/1
f 6/7/2 13/25/2 16/8/2
f 2/10/3 4/14/3 8/11/3
f 1/13/4 3/39/4 4/14/4
f 5/15/2 1/40/2 2/10/2
f 11/16/5 10/5/5 9/17/5
f 4/19/3 12/23/3 9/20/3
f 7/6/6 10/5/6 11/16/6
f 3/22/4 11/41/4 12/23/4
f 15/24/1 16/8/1 13/25/1
f 7/27/5 15/31/5 14/28/5
f 8/29/3 14/28/3 13/25/3
f 5/30/6 16/42/6 15/31/6
f 20/2/6 18/43/6 17/32/6
f 1/34/4 19/44/4 17/35/4
f 5/3/2 20/2/2 19/33/2
f 3/36/5 17/35/5 18/38/5
