# Blender 4.1.1
# www.blender.org
mtllib beam.mtl
o Beam
v 0.000000 0.020000 0.000000
v 0.014142 0.014142 0.000000
v 0.020000 -0.000000 0.000000
v 0.014142 -0.014142 -0.000001
v 0.000000 -0.020000 -0.000001
v 0.000000 -0.000000 10.000000
v -0.014142 -0.014142 -0.000001
v -0.020000 -0.000000 0.000000
v -0.014142 0.014142 0.000000
vn 0.3827 -0.9239 0.0018
vn -0.3827 -0.9239 0.0018
vn -0.3827 0.9239 0.0018
vn -0.9239 0.3827 0.0018
vn -0.9239 -0.3827 0.0018
vn -0.0000 -0.0000 -1.0000
vn 0.9239 0.3827 0.0018
vn 0.3827 0.9239 0.0018
vn 0.9239 -0.3827 0.0018
vt 0.951388 0.159505
vt 0.040036 0.499970
vt 0.951377 0.045817
vt 0.951405 0.841634
vt 0.951400 0.955325
vt 0.951407 0.614259
vt 0.951406 0.500567
vt 0.951407 0.727946
vt 0.058492 0.129191
vt 0.248246 0.051499
vt 0.325938 0.241253
vt 0.951402 0.386880
vt 0.951396 0.273190
vt 0.247151 0.319398
vt 0.136184 0.318945
vt 0.058039 0.240158
vt 0.137279 0.051045
vt 0.326392 0.130285
s 1
usemtl Material
f 4/1/1 6/2/1 5/3/1
f 7/4/2 5/5/2 6/2/2
f 9/6/3 6/2/3 1/7/3
f 8/8/4 6/2/4 9/6/4
f 7/4/5 6/2/5 8/8/5
f 4/9/6 7/10/6 9/11/6
f 2/12/7 6/2/7 3/13/7
f 1/7/8 6/2/8 2/12/8
f 3/13/9 6/2/9 4/1/9
f 9/11/6 1/14/6 2/15/6
f 2/15/6 3/16/6 4/9/6
f 4/9/6 5/17/6 7/10/6
f 7/10/6 8/18/6 9/11/6
f 9/11/6 2/15/6 4/9/6
