# Blender 4.1.1
# www.blender.org
mtllib balloon.mtl
o balloon
v 0.144721 -0.108227 0.105145
v -0.055278 -0.108227 0.170130
v -0.178885 -0.108226 0.000000
v -0.055278 -0.108227 -0.170130
v 0.144721 -0.108227 -0.105145
v 0.055278 0.108227 0.170130
v -0.144721 0.108227 0.105145
v -0.144721 0.108227 -0.105145
v 0.055278 0.108227 -0.170130
v 0.178885 0.108226 0.000000
v 0.000000 0.242000 0.000000
v -0.032491 -0.205858 0.099999
v 0.085065 -0.205858 0.061802
v 0.052574 -0.127229 0.161802
v 0.170130 -0.127228 0.000000
v 0.085065 -0.205858 -0.061802
v -0.105146 -0.205858 0.000000
v -0.137638 -0.127228 0.099999
v -0.032491 -0.205858 -0.099999
v -0.137638 -0.127228 -0.099999
v 0.052574 -0.127229 -0.161802
v 0.190212 0.000000 0.061803
v 0.190212 0.000000 -0.061803
v 0.000000 0.000000 0.200000
v 0.117557 0.000000 0.161803
v -0.190212 0.000000 0.061803
v -0.117557 0.000000 0.161803
v -0.117557 0.000000 -0.161803
v -0.190212 0.000000 -0.061803
v 0.117557 0.000000 -0.161803
v 0.000000 0.000000 -0.200000
v 0.137638 0.127228 0.099999
v -0.052574 0.127229 0.161802
v -0.170130 0.127228 0.000000
v -0.052574 0.127229 -0.161802
v 0.137638 0.127228 -0.099999
v 0.032491 0.205858 0.099999
v 0.105146 0.205858 0.000000
v -0.085065 0.205858 0.061802
v -0.085065 0.205858 -0.061802
v 0.032491 0.205858 -0.099999
v 0.139994 -0.275391 -0.001030
v 0.085065 -0.205858 0.061802
v 0.085065 -0.205858 -0.061802
v 0.045168 -0.275399 0.132511
v -0.032491 -0.205858 0.099999
v 0.085065 -0.205858 0.061802
v -0.114916 -0.275460 0.079960
v -0.032491 -0.205858 0.099999
v -0.105146 -0.205858 0.000000
v -0.106038 -0.275490 -0.091407
v -0.105146 -0.205858 0.000000
v -0.032491 -0.205858 -0.099999
v 0.045364 -0.276099 -0.132438
v 0.085065 -0.205858 -0.061802
v -0.032491 -0.205858 -0.099999
vn 0.7477 -0.3819 0.5432
vn -0.2856 -0.3819 0.8790
vn -0.9242 -0.3819 -0.0000
vn -0.2856 -0.3819 -0.8790
vn 0.7477 -0.3819 -0.5432
vn 0.2856 0.3819 0.8790
vn -0.7477 0.3819 0.5432
vn -0.7477 0.3819 -0.5432
vn 0.2856 0.3819 -0.8790
vn 0.9242 0.3819 -0.0000
vn -0.0000 1.0000 -0.0000
vn -0.2184 -0.7076 0.6721
vn 0.5717 -0.7076 0.4154
vn 0.2752 -0.4549 0.8470
vn 0.8906 -0.4549 -0.0000
vn 0.5717 -0.7076 -0.4154
vn -0.7066 -0.7076 -0.0000
vn -0.7205 -0.4549 0.5235
vn -0.2184 -0.7076 -0.6721
vn -0.7205 -0.4549 -0.5235
vn 0.2752 -0.4549 -0.8470
vn 0.9511 -0.0000 0.3090
vn 0.9511 -0.0000 -0.3090
vn -0.0000 -0.0000 1.0000
vn 0.5878 -0.0000 0.8090
vn -0.9511 -0.0000 0.3090
vn -0.5878 -0.0000 0.8090
vn -0.5878 -0.0000 -0.8090
vn -0.9511 -0.0000 -0.3090
vn 0.5878 -0.0000 -0.8090
vn -0.0000 -0.0000 -1.0000
vn 0.7205 0.4549 0.5235
vn -0.2752 0.4549 0.8470
vn -0.8906 0.4549 -0.0000
vn -0.2752 0.4549 -0.8470
vn 0.7205 0.4549 -0.5235
vn 0.1851 0.8008 0.5696
vn 0.5989 0.8008 -0.0000
vn -0.4845 0.8008 0.3520
vn -0.4845 0.8008 -0.3520
vn 0.1851 0.8008 -0.5696
vn 0.7847 0.6199 -0.0000
vn 0.2425 0.6198 0.7464
vn -0.6352 0.6193 0.4615
vn -0.6373 0.6160 -0.4630
vn 0.2435 0.6159 -0.7493
vt 0.909091 0.000000
vt 0.954545 0.078731
vt 0.863636 0.078731
vt 0.272728 0.157461
vt 0.318182 0.078731
vt 0.363637 0.157461
vt 0.727273 0.000000
vt 0.772727 0.078731
vt 0.681818 0.078731
vt 0.545455 0.000000
vt 0.590909 0.078731
vt 0.500000 0.078731
vt 0.318182 0.236191
vt 0.090910 0.157461
vt 0.181819 0.157461
vt 0.136365 0.236191
vt 0.818182 0.157461
vt 0.909091 0.157461
vt 0.863636 0.236191
vt 0.636364 0.157461
vt 0.727273 0.157461
vt 0.681818 0.236191
vt 0.454546 0.157461
vt 0.545455 0.157461
vt 0.500000 0.236191
vt 0.227273 0.236191
vt 0.045455 0.236191
vt 0.772727 0.236191
vt 0.590909 0.236191
vt 0.409092 0.236191
vt 0.181819 0.314921
vt 0.272728 0.314921
vt 0.227273 0.393651
vt 0.000000 0.314921
vt 0.090910 0.314921
vt 0.045455 0.393651
vt 0.727273 0.314921
vt 0.818182 0.314921
vt 0.772727 0.393651
vt 0.545455 0.314921
vt 0.636364 0.314921
vt 0.590909 0.393651
vt 0.363637 0.314921
vt 0.454546 0.314921
vt 0.409092 0.393651
vt 0.500000 0.393651
vt 0.454546 0.472382
vt 0.681818 0.393651
vt 0.636364 0.472382
vt 0.863636 0.393651
vt 0.818182 0.472382
vt 0.909091 0.314921
vt 0.136365 0.393651
vt 0.090910 0.472382
vt 0.318182 0.393651
vt 0.272728 0.472382
vt 0.954545 0.236191
vt 1.000000 0.157461
vt 0.409092 0.078731
vt 0.181819 0.000000
vt 0.227273 0.078731
vt 0.136365 0.078731
vt 0.363637 0.000000
s 1
usemtl Material
f 48/1/44 49/2/44 50/3/44
f 1/4/1 13/5/13 15/6/15
f 51/7/45 52/8/45 53/9/45
f 54/10/46 56/11/46 55/12/46
f 1/4/1 15/6/15 22/13/22
f 2/14/2 14/15/14 24/16/24
f 3/17/3 18/18/18 26/19/26
f 4/20/4 20/21/20 28/22/28
f 5/23/5 21/24/21 30/25/30
f 1/4/1 22/13/22 25/26/25
f 2/14/2 24/16/24 27/27/27
f 3/17/3 26/19/26 29/28/29
f 4/20/4 28/22/28 31/29/31
f 5/23/5 30/25/30 23/30/23
f 6/31/6 32/32/32 37/33/37
f 7/34/7 33/35/33 39/36/39
f 8/37/8 34/38/34 40/39/40
f 9/40/9 35/41/35 41/42/41
f 10/43/10 36/44/36 38/45/38
f 38/45/38 41/46/41 11/47/11
f 38/45/38 36/44/36 41/46/41
f 36/44/36 9/40/9 41/46/41
f 41/42/41 40/48/40 11/49/11
f 41/42/41 35/41/35 40/48/40
f 35/41/35 8/37/8 40/48/40
f 40/39/40 39/50/39 11/51/11
f 40/39/40 34/38/34 39/50/39
f 34/38/34 7/52/7 39/50/39
f 39/36/39 37/53/37 11/54/11
f 39/36/39 33/35/33 37/53/37
f 33/35/33 6/31/6 37/53/37
f 37/33/37 38/55/38 11/56/11
f 37/33/37 32/32/32 38/55/38
f 32/32/32 10/43/10 38/55/38
f 23/30/23 36/44/36 10/43/10
f 23/30/23 30/25/30 36/44/36
f 30/25/30 9/40/9 36/44/36
f 31/29/31 35/41/35 9/40/9
f 31/29/31 28/22/28 35/41/35
f 28/22/28 8/37/8 35/41/35
f 29/28/29 34/38/34 8/37/8
f 29/28/29 26/19/26 34/38/34
f 26/19/26 7/52/7 34/38/34
f 27/27/27 33/35/33 7/34/7
f 27/27/27 24/16/24 33/35/33
f 24/16/24 6/31/6 33/35/33
f 25/26/25 32/32/32 6/31/6
f 25/26/25 22/13/22 32/32/32
f 22/13/22 10/43/10 32/32/32
f 30/25/30 31/29/31 9/40/9
f 30/25/30 21/24/21 31/29/31
f 21/24/21 4/20/4 31/29/31
f 28/22/28 29/28/29 8/37/8
f 28/22/28 20/21/20 29/28/29
f 20/21/20 3/17/3 29/28/29
f 26/19/26 27/57/27 7/52/7
f 26/19/26 18/18/18 27/57/27
f 18/18/18 2/58/2 27/57/27
f 24/16/24 25/26/25 6/31/6
f 24/16/24 14/15/14 25/26/25
f 14/15/14 1/4/1 25/26/25
f 22/13/22 23/30/23 10/43/10
f 22/13/22 15/6/15 23/30/23
f 15/6/15 5/23/5 23/30/23
f 16/12/16 21/24/21 5/23/5
f 16/12/16 19/11/19 21/24/21
f 19/11/19 4/20/4 21/24/21
f 19/9/19 20/21/20 4/20/4
f 19/9/19 17/8/17 20/21/20
f 17/8/17 3/17/3 20/21/20
f 17/3/17 18/18/18 3/17/3
f 17/3/17 12/2/12 18/18/18
f 12/2/12 2/58/2 18/18/18
f 15/6/15 16/59/16 5/23/5
f 15/6/15 13/5/13 16/59/16
f 45/60/43 47/61/43 46/62/43
f 12/62/12 14/15/14 2/14/2
f 12/62/12 13/61/13 14/15/14
f 13/61/13 1/4/1 14/15/14
f 43/5/42 42/63/42 44/59/42
